<?xml version="1.0" encoding="UTF-8" standalone="no"?>
<!-- Created with Inkscape (http://www.inkscape.org/) -->

<svg
   xmlns:dc="http://purl.org/dc/elements/1.1/"
   xmlns:cc="http://creativecommons.org/ns#"
   xmlns:rdf="http://www.w3.org/1999/02/22-rdf-syntax-ns#"
   xmlns:svg="http://www.w3.org/2000/svg"
   xmlns="http://www.w3.org/2000/svg"
   xmlns:sodipodi="http://sodipodi.sourceforge.net/DTD/sodipodi-0.dtd"
   xmlns:inkscape="http://www.inkscape.org/namespaces/inkscape"
   width="89.539368"
   height="55.807087"
   id="svg7404"
   version="1.1"
   inkscape:version="0.48.4 r9939"
   sodipodi:docname="PTN78060.svg">
  <defs
     id="defs7406" />
  <sodipodi:namedview
     id="base"
     pagecolor="#ffffff"
     bordercolor="#666666"
     borderopacity="1.0"
     inkscape:pageopacity="0.0"
     inkscape:pageshadow="2"
     inkscape:zoom="5.9584078"
     inkscape:cx="73.582336"
     inkscape:cy="65.472514"
     inkscape:document-units="mm"
     inkscape:current-layer="layer1"
     showgrid="true"
     units="mm"
     inkscape:snap-grids="false"
     inkscape:showpageshadow="false"
     inkscape:snap-midpoints="true"
     inkscape:window-width="1680"
     inkscape:window-height="1000"
     inkscape:window-x="1440"
     inkscape:window-y="0"
     inkscape:window-maximized="1">
    <inkscape:grid
       type="xygrid"
       id="grid7719"
       empspacing="1"
       visible="true"
       enabled="true"
       snapvisiblegridlinesonly="false"
       units="mm"
       spacingx="0.1mm"
       spacingy="0.1mm" />
  </sodipodi:namedview>
  <metadata
     id="metadata7409">
    <rdf:RDF>
      <cc:Work
         rdf:about="">
        <dc:format>image/svg+xml</dc:format>
        <dc:type
           rdf:resource="http://purl.org/dc/dcmitype/StillImage" />
      </cc:Work>
    </rdf:RDF>
  </metadata>
  <g
     inkscape:label="Calque 1"
     inkscape:groupmode="layer"
     id="layer1"
     transform="translate(0,-996.5551)">
    <rect
       style="fill:#008000"
       id="rect7721"
       width="89.539368"
       height="55.807087"
       x="0.089285716"
       y="996.64789" />
    <path
       sodipodi:type="arc"
       style="fill:#917c6f"
       id="path7737"
       sodipodi:cx="12.321428"
       sodipodi:cy="22.057087"
       sodipodi:rx="5.4464288"
       sodipodi:ry="5.4464288"
       d="m 17.767857,22.057087 c 0,3.007979 -2.438449,5.446429 -5.446429,5.446429 -3.0079793,0 -5.4464285,-2.43845 -5.4464285,-5.446429 0,-3.00798 2.4384492,-5.446429 5.4464285,-5.446429 3.00798,0 5.446429,2.438449 5.446429,5.446429 z"
       transform="matrix(0.45540207,0,0,0.45540207,-0.2253772,1036.9138)" />
    <path
       sodipodi:type="arc"
       style="fill:#917c6f"
       id="path7737-8"
       sodipodi:cx="12.321428"
       sodipodi:cy="22.057087"
       sodipodi:rx="5.4464288"
       sodipodi:ry="5.4464288"
       d="m 17.767857,22.057087 c 0,3.007979 -2.438449,5.446429 -5.446429,5.446429 -3.0079793,0 -5.4464285,-2.43845 -5.4464285,-5.446429 0,-3.00798 2.4384492,-5.446429 5.4464285,-5.446429 3.00798,0 5.446429,2.438449 5.446429,5.446429 z"
       transform="matrix(0.45540207,0,0,0.45540207,33.506906,1036.9138)" />
    <path
       sodipodi:type="arc"
       style="fill:#917c6f"
       id="path7737-8-8"
       sodipodi:cx="12.321428"
       sodipodi:cy="22.057087"
       sodipodi:rx="5.4464288"
       sodipodi:ry="5.4464288"
       d="m 17.767857,22.057087 c 0,3.007979 -2.438449,5.446429 -5.446429,5.446429 -3.0079793,0 -5.4464285,-2.43845 -5.4464285,-5.446429 0,-3.00798 2.4384492,-5.446429 5.4464285,-5.446429 3.00798,0 5.446429,2.438449 5.446429,5.446429 z"
       transform="matrix(0.45540207,0,0,0.45540207,44.774623,1036.9138)" />
    <path
       sodipodi:type="arc"
       style="fill:#917c6f"
       id="path7737-8-8-8"
       sodipodi:cx="12.321428"
       sodipodi:cy="22.057087"
       sodipodi:rx="5.4464288"
       sodipodi:ry="5.4464288"
       d="m 17.767857,22.057087 c 0,3.007979 -2.438449,5.446429 -5.446429,5.446429 -3.0079793,0 -5.4464285,-2.43845 -5.4464285,-5.446429 0,-3.00798 2.4384492,-5.446429 5.4464285,-5.446429 3.00798,0 5.446429,2.438449 5.446429,5.446429 z"
       transform="matrix(0.45540207,0,0,0.45540207,56.042339,1036.9138)" />
    <path
       sodipodi:type="arc"
       style="fill:#917c6f"
       id="path7737-8-8-8-0"
       sodipodi:cx="12.321428"
       sodipodi:cy="22.057087"
       sodipodi:rx="5.4464288"
       sodipodi:ry="5.4464288"
       d="m 17.767857,22.057087 c 0,3.007979 -2.438449,5.446429 -5.446429,5.446429 -3.0079793,0 -5.4464285,-2.43845 -5.4464285,-5.446429 0,-3.00798 2.4384492,-5.446429 5.4464285,-5.446429 3.00798,0 5.446429,2.438449 5.446429,5.446429 z"
       transform="matrix(0.45540207,0,0,0.45540207,78.542339,1036.9138)" />
    <path
       sodipodi:type="arc"
       style="fill:#917c6f"
       id="path7737-1"
       sodipodi:cx="12.321428"
       sodipodi:cy="22.057087"
       sodipodi:rx="5.4464288"
       sodipodi:ry="5.4464288"
       d="m 17.767857,22.057087 c 0,3.007979 -2.438449,5.446429 -5.446429,5.446429 -3.0079793,0 -5.4464285,-2.43845 -5.4464285,-5.446429 0,-3.00798 2.4384492,-5.446429 5.4464285,-5.446429 3.00798,0 5.446429,2.438449 5.446429,5.446429 z"
       transform="matrix(0.45540207,0,0,0.45540207,-0.2253772,991.9138)" />
    <path
       sodipodi:type="arc"
       style="fill:#917c6f"
       id="path7737-1-7"
       sodipodi:cx="12.321428"
       sodipodi:cy="22.057087"
       sodipodi:rx="5.4464288"
       sodipodi:ry="5.4464288"
       d="m 17.767857,22.057087 c 0,3.007979 -2.438449,5.446429 -5.446429,5.446429 -3.0079793,0 -5.4464285,-2.43845 -5.4464285,-5.446429 0,-3.00798 2.4384492,-5.446429 5.4464285,-5.446429 3.00798,0 5.446429,2.438449 5.446429,5.446429 z"
       transform="matrix(0.45540207,0,0,0.45540207,78.542339,991.9138)" />
    <rect
       style="fill:#000000"
       id="rect7866"
       width="26.607143"
       height="28.660713"
       x="46.138283"
       y="1002.8082" />
    <text
       xml:space="preserve"
       style="font-size:4px;font-style:normal;font-weight:normal;line-height:125%;letter-spacing:0px;word-spacing:0px;fill:#ffffff;fill-opacity:1;stroke:none;font-family:Sans"
       x="47.908073"
       y="1007.9578"
       id="text7868"
       sodipodi:linespacing="125%"><tspan
         sodipodi:role="line"
         id="tspan7870"
         x="47.908073"
         y="1007.9578">PTN78060</tspan></text>
    <rect
       style="fill:#552200"
       id="rect7872"
       width="7.3577743"
       height="12.994779"
       x="79.452095"
       y="1018.8787" />
    <rect
       style="fill:#6c5d53"
       id="rect7874"
       width="7.5357852"
       height="1.8987805"
       x="79.392761"
       y="1018.8787" />
    <rect
       style="fill:#6c5d53"
       id="rect7874-3"
       width="7.5357852"
       height="1.8987805"
       x="79.363091"
       y="1029.9747" />
    <rect
       style="fill:#000000"
       id="rect7894"
       width="19.300459"
       height="9.0628242"
       x="11.915935"
       y="5.793726"
       transform="translate(0,996.5551)" />
    <rect
       style="fill:#000000"
       id="rect7896"
       width="9.9019737"
       height="10.069804"
       x="25.678001"
       y="19.387962"
       transform="translate(0,996.5551)" />
    <rect
       style="fill:#917c6f"
       id="rect7898"
       width="4.6992421"
       height="4.7831569"
       x="28.363281"
       y="8.1433468"
       transform="translate(0,996.5551)" />
    <rect
       style="fill:#552200"
       id="rect7872-3"
       width="8.0290947"
       height="14.840909"
       x="7.9013853"
       y="1016.1588" />
    <rect
       style="fill:#6c5d53"
       id="rect7874-8"
       width="8.0698175"
       height="1.8987805"
       x="7.8810258"
       y="1016.1588" />
    <rect
       style="fill:#6c5d53"
       id="rect7874-8-1"
       width="8.0698175"
       height="1.8987805"
       x="7.8810239"
       y="1029.101" />
    <rect
       style="fill:#003c00;fill-opacity:1"
       id="rect7954"
       width="12.251595"
       height="4.3635817"
       x="16.447348"
       y="1033.7332" />
    <rect
       style="fill:#003c00;fill-opacity:1"
       id="rect7954-0"
       width="12.251595"
       height="4.3635817"
       x="16.447348"
       y="1040.0967" />
    <rect
       style="fill:#6c5d53;fill-opacity:1"
       id="rect8742"
       width="1.3202459"
       height="4.3612614"
       x="16.436319"
       y="37.175304"
       transform="translate(0,996.5551)" />
    <rect
       style="fill:#6c5d53;fill-opacity:1"
       id="rect8742-9"
       width="1.3202459"
       height="4.3612614"
       x="16.447348"
       y="1040.0979" />
    <rect
       style="fill:#6c5d53;fill-opacity:1"
       id="rect8742-9-9"
       width="1.3202459"
       height="4.3612614"
       x="27.378696"
       y="1033.7344" />
    <rect
       style="fill:#6c5d53;fill-opacity:1"
       id="rect8742-9-9-3"
       width="1.3202459"
       height="4.3612614"
       x="27.378696"
       y="1040.0979" />
    <text
       xml:space="preserve"
       style="font-size:3px;font-style:normal;font-variant:normal;font-weight:normal;font-stretch:normal;line-height:125%;letter-spacing:0px;word-spacing:0px;fill:#ffffff;fill-opacity:1;stroke:none;font-family:sans;-inkscape-font-specification:sans"
       x="4.3635812"
       y="1002.8524"
       id="text8798"
       sodipodi:linespacing="125%"><tspan
         sodipodi:role="line"
         id="tspan8800"
         x="4.3635812"
         y="1002.8524">1</tspan></text>
    <text
       xml:space="preserve"
       style="font-size:3px;font-style:normal;font-variant:normal;font-weight:normal;font-stretch:normal;line-height:125%;letter-spacing:0px;word-spacing:0px;fill:#ffffff;fill-opacity:1;stroke:none;font-family:sans;-inkscape-font-specification:sans"
       x="4.3898482"
       y="1047.9331"
       id="text8798-7"
       sodipodi:linespacing="125%"><tspan
         sodipodi:role="line"
         id="tspan8800-4"
         x="4.3898482"
         y="1047.9331">2</tspan></text>
    <text
       xml:space="preserve"
       style="font-size:3px;font-style:normal;font-variant:normal;font-weight:normal;font-stretch:normal;line-height:125%;letter-spacing:0px;word-spacing:0px;fill:#ffffff;fill-opacity:1;stroke:none;font-family:sans;-inkscape-font-specification:sans"
       x="38.123695"
       y="1047.9331"
       id="text8798-7-2"
       sodipodi:linespacing="125%"><tspan
         sodipodi:role="line"
         id="tspan8800-4-6"
         x="38.123695"
         y="1047.9331">3</tspan></text>
    <text
       xml:space="preserve"
       style="font-size:3px;font-style:normal;font-variant:normal;font-weight:normal;font-stretch:normal;line-height:125%;letter-spacing:0px;word-spacing:0px;fill:#ffffff;fill-opacity:1;stroke:none;font-family:sans;-inkscape-font-specification:sans"
       x="49.276711"
       y="1047.9331"
       id="text8798-7-2-9"
       sodipodi:linespacing="125%"><tspan
         sodipodi:role="line"
         id="tspan8800-4-6-5"
         x="49.276711"
         y="1047.9331">4</tspan></text>
    <text
       xml:space="preserve"
       style="font-size:3px;font-style:normal;font-variant:normal;font-weight:normal;font-stretch:normal;line-height:125%;letter-spacing:0px;word-spacing:0px;fill:#ffffff;fill-opacity:1;stroke:none;font-family:sans;-inkscape-font-specification:sans"
       x="60.615292"
       y="1047.9331"
       id="text8798-7-2-9-0"
       sodipodi:linespacing="125%"><tspan
         sodipodi:role="line"
         id="tspan8800-4-6-5-6"
         x="60.615292"
         y="1047.9331">5</tspan></text>
    <text
       xml:space="preserve"
       style="font-size:3px;font-style:normal;font-variant:normal;font-weight:normal;font-stretch:normal;line-height:125%;letter-spacing:0px;word-spacing:0px;fill:#ffffff;fill-opacity:1;stroke:none;font-family:sans;-inkscape-font-specification:sans"
       x="83.292458"
       y="1047.9331"
       id="text8798-7-2-9-0-3"
       sodipodi:linespacing="125%"><tspan
         sodipodi:role="line"
         id="tspan8800-4-6-5-6-5"
         x="83.292458"
         y="1047.9331">6</tspan></text>
    <text
       xml:space="preserve"
       style="font-size:3px;font-style:normal;font-variant:normal;font-weight:normal;font-stretch:normal;line-height:125%;letter-spacing:0px;word-spacing:0px;fill:#ffffff;fill-opacity:1;stroke:none;font-family:sans;-inkscape-font-specification:sans"
       x="83.292458"
       y="1002.771"
       id="text8798-7-2-9-0-3-4"
       sodipodi:linespacing="125%"><tspan
         sodipodi:role="line"
         id="tspan8800-4-6-5-6-5-6"
         x="83.292458"
         y="1002.771">7</tspan></text>
  </g>
</svg>
