<?xml version="1.0" encoding="UTF-8" standalone="no"?>
<svg
   xmlns:dc="http://purl.org/dc/elements/1.1/"
   xmlns:cc="http://creativecommons.org/ns#"
   xmlns:rdf="http://www.w3.org/1999/02/22-rdf-syntax-ns#"
   xmlns:svg="http://www.w3.org/2000/svg"
   xmlns="http://www.w3.org/2000/svg"
   xmlns:sodipodi="http://sodipodi.sourceforge.net/DTD/sodipodi-0.dtd"
   xmlns:inkscape="http://www.inkscape.org/namespaces/inkscape"
   height="55.807087"
   version="1.2"
   viewBox="0 0 994.88189 620.07871"
   width="89.539368"
   id="svg3001"
   inkscape:version="0.48.4 r9939"
   sodipodi:docname="PTN78060_PCBv2.svg">
  <metadata
     id="metadata3040">
    <rdf:RDF>
      <cc:Work
         rdf:about="">
        <dc:format>image/svg+xml</dc:format>
        <dc:type
           rdf:resource="http://purl.org/dc/dcmitype/StillImage" />
      </cc:Work>
    </rdf:RDF>
  </metadata>
  <defs
     id="defs3038" />
  <sodipodi:namedview
     pagecolor="#ffffff"
     bordercolor="#666666"
     borderopacity="1"
     objecttolerance="10"
     gridtolerance="10"
     guidetolerance="10"
     inkscape:pageopacity="0"
     inkscape:pageshadow="2"
     inkscape:window-width="1440"
     inkscape:window-height="850"
     id="namedview3036"
     showgrid="false"
     units="mm"
     inkscape:document-units="mm"
     inkscape:zoom="5.6568543"
     inkscape:cx="31.684398"
     inkscape:cy="-4.2768471"
     inkscape:window-x="0"
     inkscape:window-y="0"
     inkscape:window-maximized="1"
     inkscape:current-layer="svg3001"
     inkscape:showpageshadow="false" />
  <desc
     id="desc3003">Fritzing footprint SVG</desc>
  <g
     id="silkscreen"
     inkscape:label="#silkscreen">
    <line
       x1="989.86249"
       x2="4.9212599"
       y1="615.15747"
       y2="615.15747"
       id="line3010"
       style="fill:#ffffff;fill-opacity:1;stroke:#ffffff;stroke-width:9.84251976000000006;stroke-linecap:square;stroke-miterlimit:0;stroke-opacity:1;stroke-dasharray:none" />
    <line
       x1="5"
       x2="5"
       y1="615.07874"
       y2="5.3788304"
       id="line3012"
       style="fill:none;stroke:#ffffff;stroke-opacity:1;stroke-width:9.84251992999999992;stroke-miterlimit:4;stroke-dasharray:none;stroke-linecap:square" />
    <line
       x1="989.86249"
       x2="989.86249"
       y1="615.07684"
       y2="4.8513503"
       id="line3012-2"
       style="fill:none;stroke:#ffffff;stroke-width:9.84251976000000006;stroke-linecap:square;stroke-miterlimit:0;stroke-opacity:1;stroke-dasharray:none" />
    <line
       x1="989.88586"
       x2="4.944695"
       y1="5.0393529"
       y2="5.0393529"
       id="line3010-9"
       style="fill:none;stroke:#ffffff;stroke-opacity:1;stroke-width:9.84251992999999992;stroke-miterlimit:4;stroke-dasharray:none;stroke-linecap:square" />
  </g>
  <g
     id="copper1"
     transform="translate(410.5085,70.756641)">
    <g
       id="copper0">
      <circle
         cx="220"
         cy="200"
         id="connector1pad"
         r="31"
         sodipodi:cx="220"
         sodipodi:cy="200"
         sodipodi:rx="31"
         sodipodi:ry="31"
         style="fill:none;stroke:#ffbf00;stroke-width:20"
         d="m 251,200 c 0,17.12083 -13.87917,31 -31,31 -17.12083,0 -31,-13.87917 -31,-31 0,-17.12083 13.87917,-31 31,-31 17.12083,0 31,13.87917 31,31 z"
         transform="translate(-570.65023,-210.73304)" />
      <circle
         cx="320"
         cy="200"
         id="connector2pad"
         r="31"
         sodipodi:cx="320"
         sodipodi:cy="200"
         sodipodi:rx="31"
         sodipodi:ry="31"
         style="fill:none;stroke:#ffbf00;stroke-width:20"
         d="m 351,200 c 0,17.12083 -13.87917,31 -31,31 -17.12083,0 -31,-13.87917 -31,-31 0,-17.12083 13.87917,-31 31,-31 17.12083,0 31,13.87917 31,31 z"
         transform="translate(-295.84707,289.26698)" />
      <circle
         cx="220"
         cy="200"
         id="connector1pad-1"
         r="31"
         sodipodi:cx="220"
         sodipodi:cy="200"
         sodipodi:rx="31"
         sodipodi:ry="31"
         style="fill:none;stroke:#ffbf00;stroke-width:20"
         d="m 251,200 c 0,17.12083 -13.87917,31 -31,31 -17.12083,0 -31,-13.87917 -31,-31 0,-17.12083 13.87917,-31 31,-31 17.12083,0 31,13.87917 31,31 z"
         transform="translate(-570.65023,289.26698)" />
      <circle
         cx="320"
         cy="200"
         id="connector2pad-0"
         r="31"
         sodipodi:cx="320"
         sodipodi:cy="200"
         sodipodi:rx="31"
         sodipodi:ry="31"
         style="fill:none;stroke:#ffbf00;stroke-width:20"
         d="m 351,200 c 0,17.12083 -13.87917,31 -31,31 -17.12083,0 -31,-13.87917 -31,-31 0,-17.12083 13.87917,-31 31,-31 17.12083,0 31,13.87917 31,31 z"
         transform="translate(-170.65022,286.57586)" />
      <circle
         cx="320"
         cy="200"
         id="connector2pad-0-9"
         r="31"
         sodipodi:cx="320"
         sodipodi:cy="200"
         sodipodi:rx="31"
         sodipodi:ry="31"
         style="fill:none;stroke:#ffbf00;stroke-width:20"
         d="m 351,200 c 0,17.12083 -13.87917,31 -31,31 -17.12083,0 -31,-13.87917 -31,-31 0,-17.12083 13.87917,-31 31,-31 17.12083,0 31,13.87917 31,31 z"
         transform="translate(-45.453364,286.90819)" />
      <circle
         cx="320"
         cy="200"
         id="connector2pad-0-9-9"
         r="31"
         sodipodi:cx="320"
         sodipodi:cy="200"
         sodipodi:rx="31"
         sodipodi:ry="31"
         style="fill:none;stroke:#ffbf00;stroke-width:20"
         d="m 351,200 c 0,17.12083 -13.87917,31 -31,31 -17.12083,0 -31,-13.87917 -31,-31 0,-17.12083 13.87917,-31 31,-31 17.12083,0 31,13.87917 31,31 z"
         transform="translate(204.54664,287.67026)" />
      <circle
         cx="320"
         cy="200"
         id="connector2pad-0-9-9-3"
         r="31"
         sodipodi:cx="320"
         sodipodi:cy="200"
         sodipodi:rx="31"
         sodipodi:ry="31"
         style="fill:none;stroke:#ffbf00;stroke-width:20"
         d="m 351,200 c 0,17.12083 -13.87917,31 -31,31 -17.12083,0 -31,-13.87917 -31,-31 0,-17.12083 13.87917,-31 31,-31 17.12083,0 31,13.87917 31,31 z"
         transform="translate(204.54664,-210.73304)" />
    </g>
  </g>
</svg>
